<?xml version="1.0" encoding="UTF-8"?>
<svg id="Calque_1" data-name="Calque 1" xmlns="http://www.w3.org/2000/svg" viewBox="0 0 1024 1024">
  <defs>
    <style>
      .cls-1 {
        fill: #010101;
      }
    </style>
  </defs>
  <g>
    <path class="cls-1" d="M786.28,367.23l-28.9,16.78c-.31-1.19-.61-2.39-.88-3.59l-23.68,15.22-9.66,6.32-135.12,88.43-45.98,29.68c-15.79,10.19-33.34,8.05-47.76-3.59-8.9-7.17-16.81-14.4-25.39-22.36l-104.51-92.9-1.31-1.16-41.57-36.6-16.53,94.92-.56,3.2-8.88,52.83-2.37,14.03c51.29-31.7,113.25-32.4,160.89,4.29,35.18,27.09,55.77,69.33,60.46,115.41,42.94-10.28,77.33-26,119.18-42.23,43.72-16.95,89.54-39.24,131.63-66.47l8.07-63.59,13.04-100.34c.37-2.91.33-5.51-.16-8.27ZM397.45,498.63c-1.75-13.98-8.68-20.39-20.53-22.32,12.11-3.36,19.02-9.53,20.53-23.48,1.88,12.74,8.07,19.48,19.58,23.14-12.23,2.83-17.16,9.67-19.58,22.66ZM672.53,552.79c-2.41-11.9-8.59-18.92-21.11-21.48,11.22-2.17,18.72-7.65,20.81-20.88,2.44,11.97,8.51,18.72,20.03,21.09-11.13,2.5-16.42,8.32-19.73,21.27ZM726.61,499.24c-8.09-25.86-7.48-26.27-31.14-36.2,23.21-9.21,23.43-9.29,30.93-34.8,6.14,23.18,8.52,27.84,31.24,34.21-21.91,7.87-25.12,10.74-31.04,36.8Z"/>
    <path class="cls-1" d="M289.59,443.92c-.33,5.56-1.1,12.92-2.64,17.22l-17.19,16.05c-18.72,17.51-34.75,37.6-46.83,61.36-11.88,23.35-14.98,50.54-2.51,73.41-7.98,16.93-13.57,34.55-16.83,52.31-13.84-6.69-25.82-15.14-34.69-25.8-21.59-25.94-18.63-58.6-2.65-86.7,24.56-43.17,82.2-85.04,123.34-107.84Z"/>
    <path class="cls-1" d="M201.17,681.22c-1.26,12.27-1.4,24.52-.48,36.53-6.96-2.58-13.71-5.44-20.21-8.63-14.44-7.08-26.93-16.17-37.83-28.43-35-39.39-19.46-93.85,11.07-130.04-7.12,13.83-13.51,26.73-15.84,42.35-6.94,46.91,25.95,73.56,63.29,88.22Z"/>
    <path class="cls-1" d="M893.82,487.75c-22.64,61.17-73.38,116.35-119.76,155.81-51.48,43.79-108.88,78.27-170.01,101.63-39.06,14.93-79,26.25-119.46,33.58,8.33-14.13,14.86-29.02,19.61-44.22,20.22-5.84,39.83-12.22,58.49-18.87,72.35-25.78,151.96-65.37,214.3-114.43,42.06-33.1,92.73-81.03,108.77-138.2-7.69,16.17-13.89,32.7-24.95,46.5-58.73,80.26-168.24,141.5-253.97,174.36-32.09,12.31-64.59,22.63-97.49,30.9,2.72-12.88,4.22-25.87,4.52-38.72,37.86-9.66,75.25-21.9,111.99-36.6,67.15-26.86,139.48-67.44,193.64-120.06,20.17-19.6,47.58-50.87,53.43-80.84,4.24-19.6-1.86-38.06-15.9-50.34-11.71-10.37-25.6-15.29-39.53-20.86,31.58,2.78,75.56,25.18,82.42,63.88,3.41,19.27.6,38.37-6.09,56.46Z"/>
    <path class="cls-1" d="M747.08,344.88h-401.95c-4.4,0-7.29,2.56-8.41,5.89l40.67,33.6,10.14,8.5,92.5,77.43c22.75,22.96,48.93,25.4,77.06,12.16l149.15-93.55,21.98-13.79,23.69-14.68c-1.31-5.34-2.83-10.58-4.83-15.55ZM457.16,433.68c-7.43-26.11-10.18-28.42-33.22-35.38,23.85-7.44,27.22-11.92,33.17-37.92,5.13,25.66,10.37,30.34,33.69,37.47-22.77,7.73-26.79,9.3-33.65,35.83ZM577.93,388.59c-1.96-7.81-5.28-13-14.28-15.18,7.8-2.96,12.38-6.9,14.3-15.58,1.63,9.61,5.93,13.5,14.33,15.49-7.58,1.78-12.02,5.13-14.34,15.27Z"/>
    <path class="cls-1" d="M865.78,246.04l-76.67,30.4-67.28,27.13c-1.27.5-3,3.65-3,5.01.01,5.25,27.04,14.43,32.28,21.97,5.53,12.12,7.51,26.4,10.9,39.49l29.28-17,36.91,21.81,3.88,2.34c.9.54,2.8-2.59,3.16-3.66l34.17-100.91c3-8.87,5.64-16.87,6.37-26.36-3.26-1.26-7.06-1.39-10-.22ZM843.57,279.97l-57.43,60.4-15.42,10.03,1.21-16.38,67.57-58.52c8.67-7.5,17.25-13.78,26.21-20.24l-22.14,24.72Z"/>
    <path class="cls-1" d="M732.85,724.41c4.79.01,10.13-2.07,11.3-7.03l9.65-41.07c-25.08,17.3-48.95,33.23-76.14,47.94l55.2.16Z"/>
  </g>
  <g>
    <path class="cls-1" d="M308.21,662.49c-5.35-1.77-9.36-2.47-12.14-2.17-3.44.37-6.74,2.85-9.84,7.35-3.76,5.46-6.08,12.44-6.11,20.32-.05,11.79,5.15,24.88,9.36,35.97,5.9,15.51,10.83,32.39,11.9,48.95,1.02,15.67,1.5,32.41-4.68,47.18-4,9.55-9.47,11.5-18.12,6.88-7.97-4.25-14.17-9.23-19.37-13.91-3.08-4.17-8.04-11.19-14.15-21.29-3.35-5.53-7.81-13.06-12.69-22.65,7.57,5.03,12.67,7.99,14.93,8.68,8.86,2.7,11.51-2.52,9.26-15.27-1.52-8.65-5-18.65-9.83-26.14-7.43-10.17-14.8-20.37-22.11-30.63-13.99-19.47-15.76-40.39-9.03-61.66,7.36-23.25,25.51-44.12,42.66-62.12,11.98-12.58,24.67-26.67,40.32-35.03,7.41-3.96,14.96-5.63,23.89-3.92-8.43,39.56-12.73,79.07-14.25,119.47Z"/>
    <path class="cls-1" d="M422.35,772.29c-3.18,9.62-6.62,19.21-10.11,28.65-3.25,8.79-6.38,17.76-9.6,26.63-24.92,8.67-47.96,12.21-74.32,10.78-5.84-49.57-7.11-99.89-7.16-149.73-.05-49.8,2.72-99.17,10.32-148.42,18.83-4.93,38.92-6.39,58.26-4.44,6.56,83.68,2.13,168.87-8.33,252.04,10.17-1.58,19.87-5.61,29.4-9.25,2.71-1.08,6.55-3.15,11.55-6.25Z"/>
    <path class="cls-1" d="M473.48,572.35c27.13,33.57,35.29,70.92,31.91,113.46-4.63,40.68-22.71,76.68-48.32,108.17-12.07,11.06-26.02,20.18-40.62,27.51,33.11-88.41,32.91-189.14,5.23-279.06,19.54,6.1,36.22,16.88,51.79,29.92Z"/>
  </g>
</svg>